<?xml version="1.0" encoding="UTF-8" standalone="no"?>
<svg
   xmlns:dc="http://purl.org/dc/elements/1.1/"
   xmlns:cc="http://creativecommons.org/ns#"
   xmlns:rdf="http://www.w3.org/1999/02/22-rdf-syntax-ns#"
   xmlns:svg="http://www.w3.org/2000/svg"
   xmlns="http://www.w3.org/2000/svg"
   viewBox="0 0 38.666668 37.333332"
   height="37.333332"
   width="38.666668"
   id="svg2"
   version="1.1">
  <metadata
     id="metadata8">
    <rdf:RDF>
      <cc:Work
         rdf:about="">
        <dc:format>image/svg+xml</dc:format>
        <dc:type
           rdf:resource="http://purl.org/dc/dcmitype/StillImage" />
        <dc:title></dc:title>
      </cc:Work>
    </rdf:RDF>
  </metadata>
  <defs
     id="defs6" />
  <g
     id="g12">
    <path
       id="path16"
       d="M 35.992613,29.666666 C 35.151232,25.449999 33.885567,19.749999 33.180024,16.999999 L 31.897217,12 H 18.666667 5.4361177 L 4.143606,16.999999 c -0.7108815,2.75 -1.8697527,7.7 -2.5752693,11 -1.08520178,5.075948 -1.30474836,3.381853 -1.42554711,-11 L 0,0 h 19.333334 19.333334 v 18.666666 c 0,10.266666 -0.257461,18.666666 -0.572136,18.666666 -0.314675,0 -1.260539,-3.45 -2.101919,-7.666666 z M 14.907266,7.6666664 c 0.312093,-2.1974929 1.317743,-2.9999999 3.759401,-2.9999999 2.441659,0 3.447308,0.802507 3.759402,2.9999999 0.581852,4.0968996 2.907265,3.8074146 2.907265,-0.3619184 0,-4.4967665 -5.234957,-7.05178512 -10,-4.8806865 C 13.060671,3.4595561 12,5.0125956 12,7.304748 c 0,4.169333 2.325414,4.458818 2.907266,0.3619184 z M 10.922223,15.899999 C 11.185,15.111666 11.97,14.466666 12.666667,14.466666 c 0.696667,0 1.481667,0.645 1.744444,1.433333 0.262779,0.788334 -0.522221,1.433334 -1.744444,1.433334 -1.222222,0 -2.007222,-0.645 -1.744444,-1.433334 z m 12,0 c 0.262778,-0.788333 1.047778,-1.433333 1.744445,-1.433333 0.696666,0 1.481666,0.645 1.744444,1.433333 0.262778,0.788334 -0.522222,1.433334 -1.744444,1.433334 -1.222223,0 -2.007223,-0.645 -1.744445,-1.433334 z"
       style="fill:#f6f6f6;stroke-width:1.33333337" />
    <path
       id="path14"
       d="M 0,36.753833 C 0,35.691551 4.0576887,16.702153 4.790853,14.333333 5.4147365,12.317594 7.3034029,12 18.666667,12 c 11.363265,0 13.251931,0.317594 13.875814,2.333333 0.733165,2.36882 4.790854,21.358218 4.790854,22.4205 0,0.318724 -8.400001,0.579499 -18.666668,0.579499 C 8.4000003,37.333332 0,37.072557 0,36.753833 Z M 14.411111,15.899999 c -0.262777,-0.788333 -1.047777,-1.433333 -1.744444,-1.433333 -0.696667,0 -1.481667,0.645 -1.744444,1.433333 -0.262778,0.788334 0.522222,1.433334 1.744444,1.433334 1.222223,0 2.007223,-0.645 1.744444,-1.433334 z m 12.000001,0 c -0.262778,-0.788333 -1.047778,-1.433333 -1.744444,-1.433333 -0.696667,0 -1.481667,0.645 -1.744445,1.433333 -0.262778,0.788334 0.522222,1.433334 1.744445,1.433334 1.222222,0 2.007222,-0.645 1.744444,-1.433334 z M 12,7.304748 c 0,-2.2921524 1.060671,-3.8451919 3.333334,-4.8806865 4.765043,-2.17109862 10,0.38392 10,4.8806865 0,4.169333 -2.325413,4.458818 -2.907265,0.3619184 -0.312094,-2.1974929 -1.317743,-2.9999999 -3.759402,-2.9999999 -2.441658,0 -3.447308,0.802507 -3.759401,2.9999999 C 14.325414,11.763566 12,11.474081 12,7.304748 Z"
       style="fill:#6e6e6e;stroke-width:1.33333337" />
  </g>
</svg>
